<svg version="1.0" xmlns="http://www.w3.org/2000/svg"
 width="40px" height="40px" viewBox="0 0 64.000000 64.000000"
 preserveAspectRatio="xMidYMid meet">

<g transform="translate(0.000000,64.000000) scale(0.100000,-0.100000)"
fill="#131C63" stroke="none">
<path d="M33 622 c-25 -16 -33 -69 -33 -226 0 -193 7 -221 58 -237 46 -13 124
-8 130 9 3 9 -13 12 -55 12 -96 0 -94 -6 -91 220 l3 195 275 0 275 0 3 -195
c3 -223 4 -220 -81 -220 -34 0 -47 -4 -45 -12 6 -18 65 -22 110 -9 51 16 58
44 58 237 0 157 -8 210 -33 226 -16 10 -558 10 -574 0z"/>
<path d="M130 521 c0 -5 7 -12 16 -15 20 -8 328 -8 348 0 46 17 -2 24 -174 24
-105 0 -190 -4 -190 -9z"/>
<path d="M210 445 c0 -12 19 -15 110 -15 91 0 110 3 110 15 0 12 -19 15 -110
15 -91 0 -110 -3 -110 -15z"/>
<path d="M260 340 c-11 -11 -22 -31 -26 -45 -8 -31 12 -82 37 -95 23 -13 75
-13 98 0 16 8 20 5 24 -18 3 -15 9 -35 12 -44 6 -15 2 -16 -28 -11 -32 5 -37
2 -51 -26 -9 -17 -18 -31 -20 -31 -3 0 -12 23 -21 50 -18 55 -35 66 -35 23 0
-37 47 -136 60 -128 6 3 19 24 31 46 14 29 25 39 37 35 82 -24 83 -23 52 64
-11 30 -19 72 -20 93 0 44 -22 92 -45 101 -34 13 -85 6 -105 -14z m102 -27
c26 -23 22 -58 -8 -82 -54 -43 -124 29 -77 81 20 22 61 23 85 1z"/>
</g>
</svg>
