<svg version="1.0" xmlns="http://www.w3.org/2000/svg"
 width="100.000000pt" height="100.000000pt" viewBox="0 0 100.000000 100.000000"
 preserveAspectRatio="xMidYMid meet">

<g transform="translate(0.000000,100.000000) scale(0.100000,-0.100000)"
fill="#676767" stroke="none">
<path d="M386 944 c-171 -41 -308 -192 -338 -371 -51 -303 217 -573 521 -526
98 15 171 52 245 123 340 326 31 885 -428 774z m78 -309 l36 -24 36 24 c61 41
119 29 161 -34 46 -68 22 -131 -87 -235 -107 -100 -106 -100 -189 -32 -69 57
-126 129 -137 173 -10 38 5 88 34 115 48 45 92 49 146 13z"/>
</g>
</svg>
