<svg version="1.0" xmlns="http://www.w3.org/2000/svg"
 width="40px" height="40px" viewBox="0 0 64.000000 64.000000"
 preserveAspectRatio="xMidYMid meet">

<g transform="translate(0.000000,64.000000) scale(0.100000,-0.100000)"
fill="#131C63" stroke="none">
<path d="M220 590 c-73 -25 -153 -108 -175 -182 -33 -113 -10 -205 74 -289 85
-85 176 -107 291 -73 75 22 162 109 184 184 34 115 12 206 -73 291 -87 87
-185 109 -301 69z m215 -38 c47 -24 95 -73 121 -122 26 -49 26 -171 0 -220
-26 -49 -74 -98 -121 -123 -31 -17 -58 -22 -115 -22 -85 0 -133 20 -186 77
-54 57 -69 95 -69 178 0 83 15 121 69 178 31 34 70 58 116 73 41 14 142 3 185
-19z"/>
<path d="M242 374 c-12 -8 -22 -24 -22 -35 0 -25 77 -109 100 -109 23 0 100
84 100 110 0 11 -11 27 -25 36 -23 15 -27 15 -50 0 -23 -15 -28 -15 -47 -1
-28 19 -28 19 -56 -1z"/>
</g>
</svg>
