<svg version="1.0" xmlns="http://www.w3.org/2000/svg"
 width="22px" height="22px" viewBox="0 0 48.000000 48.000000"
 preserveAspectRatio="xMidYMid meet">

<g transform="translate(0.000000,48.000000) scale(0.100000,-0.100000)"
fill="#ffffff" stroke="none">
<path d="M160 467 c-49 -16 -133 -102 -148 -153 -28 -94 -8 -169 63 -239 102
-103 243 -101 338 5 90 100 90 220 0 320 -65 72 -158 97 -253 67z m201 -106
c28 -28 29 -33 29 -121 0 -88 -1 -93 -29 -121 -28 -28 -33 -29 -121 -29 -88 0
-93 1 -121 29 -28 28 -29 33 -29 121 0 88 1 93 29 121 28 28 33 29 121 29 88
0 93 -1 121 -29z"/>
<path d="M136 344 c-23 -22 -23 -186 0 -208 22 -23 186 -23 208 0 12 12 16 37
16 104 0 116 -4 120 -120 120 -67 0 -92 -4 -104 -16z m200 -15 c10 -17 -13
-36 -27 -22 -12 12 -4 33 11 33 5 0 12 -5 16 -11z m-45 -38 c16 -16 29 -39 29
-51 0 -28 -52 -80 -80 -80 -28 0 -80 52 -80 80 0 28 52 80 80 80 12 0 35 -13
51 -29z"/>
<path d="M206 274 c-31 -30 -9 -84 34 -84 24 0 50 26 50 50 0 24 -26 50 -50
50 -10 0 -26 -7 -34 -16z"/>
</g>
</svg>
