
<svg version="1.0" xmlns="http://www.w3.org/2000/svg"
 width="80px" height="80px" viewBox="0 0 80.000000 80.000000"
 preserveAspectRatio="xMidYMid meet">

<g transform="translate(0.000000,80.000000) scale(0.100000,-0.100000)"
fill="#000000" stroke="none">
<path d="M120 675 c-13 -14 -20 -28 -17 -32 8 -7 57 35 57 49 0 15 -16 8 -40
-17z"/>
<path d="M180 615 c-46 -46 -81 -88 -77 -92 8 -7 177 155 177 169 0 19 -21 3
-100 -77z"/>
<path d="M250 545 c-85 -85 -151 -158 -147 -162 8 -7 317 295 317 309 0 20
-26 -2 -170 -147z"/>
<path d="M470 625 c-41 -41 -71 -78 -67 -82 8 -7 157 135 157 149 0 18 -20 4
-90 -67z"/>
<path d="M390 405 c-162 -162 -291 -298 -287 -302 8 -7 597 575 597 589 0 5
-3 8 -8 8 -4 0 -140 -133 -302 -295z"/>
<path d="M460 335 c-123 -123 -221 -228 -217 -232 8 -7 457 435 457 449 0 5
-3 8 -8 8 -4 0 -108 -101 -232 -225z"/>
<path d="M375 520 c3 -5 8 -10 11 -10 2 0 4 5 4 10 0 6 -5 10 -11 10 -5 0 -7
-4 -4 -10z"/>
<path d="M345 490 c3 -5 8 -10 11 -10 2 0 4 5 4 10 0 6 -5 10 -11 10 -5 0 -7
-4 -4 -10z"/>
<path d="M290 440 c0 -5 5 -10 11 -10 5 0 7 5 4 10 -3 6 -8 10 -11 10 -2 0 -4
-4 -4 -10z"/>
<path d="M260 410 c0 -5 5 -10 10 -10 6 0 10 5 10 10 0 6 -4 10 -10 10 -5 0
-10 -4 -10 -10z"/>
<path d="M680 410 c0 -5 5 -10 10 -10 6 0 10 5 10 10 0 6 -4 10 -10 10 -5 0
-10 -4 -10 -10z"/>
<path d="M230 380 c0 -5 5 -10 10 -10 6 0 10 5 10 10 0 6 -4 10 -10 10 -5 0
-10 -4 -10 -10z"/>
<path d="M655 380 c3 -5 8 -10 11 -10 2 0 4 5 4 10 0 6 -5 10 -11 10 -5 0 -7
-4 -4 -10z"/>
<path d="M205 350 c3 -5 8 -10 11 -10 2 0 4 5 4 10 0 6 -5 10 -11 10 -5 0 -7
-4 -4 -10z"/>
<path d="M625 350 c3 -5 8 -10 11 -10 2 0 4 5 4 10 0 6 -5 10 -11 10 -5 0 -7
-4 -4 -10z"/>
<path d="M140 295 c-24 -24 -41 -48 -37 -52 8 -7 97 75 97 89 0 17 -18 6 -60
-37z"/>
<path d="M570 300 c0 -5 5 -10 11 -10 5 0 7 5 4 10 -3 6 -8 10 -11 10 -2 0 -4
-4 -4 -10z"/>
<path d="M540 270 c0 -5 5 -10 10 -10 6 0 10 5 10 10 0 6 -4 10 -10 10 -5 0
-10 -4 -10 -10z"/>
<path d="M600 195 c-46 -46 -81 -88 -77 -92 8 -7 177 155 177 169 0 19 -21 3
-100 -77z"/>
<path d="M445 180 c-38 -38 -66 -72 -62 -77 8 -7 146 124 147 140 0 17 -19 3
-85 -63z"/>
<path d="M655 140 c-16 -16 -25 -33 -22 -37 8 -7 67 45 67 59 0 16 -17 8 -45
-22z"/>
</g>
</svg>
