<svg version="1.0" xmlns="http://www.w3.org/2000/svg"
 width="100.000000pt" height="100.000000pt" viewBox="0 0 100.000000 100.000000"
 preserveAspectRatio="xMidYMid meet">

<g transform="translate(0.000000,100.000000) scale(0.100000,-0.100000)"
fill="#676767" stroke="none">
<path d="M386 944 c-171 -41 -308 -192 -338 -371 -51 -303 217 -573 521 -526
98 15 171 52 245 123 340 326 31 885 -428 774z m197 -202 c21 -21 31 -42 34
-76 5 -42 4 -46 -16 -46 -17 0 -21 6 -21 35 0 46 -37 85 -80 85 -43 0 -80 -39
-80 -85 0 -28 -4 -35 -20 -35 -16 0 -20 7 -20 31 0 112 125 168 203 91z m85
-174 c17 -17 17 -239 0 -256 -17 -17 -319 -17 -336 0 -17 17 -17 239 0 256 17
17 319 17 336 0z"/>
<path d="M472 488 c-14 -14 -15 -32 -3 -56 5 -9 12 -25 15 -34 3 -10 10 -18
16 -18 6 0 13 8 16 18 3 9 11 27 17 40 20 41 -29 82 -61 50z"/>
</g>
</svg>
