<svg version="1.0" xmlns="http://www.w3.org/2000/svg"
 width="40px" height="40px" viewBox="0 0 64.000000 64.000000"
 preserveAspectRatio="xMidYMid meet">

<g transform="translate(0.000000,64.000000) scale(0.100000,-0.100000)"
fill="#131C63" stroke="none">
<path d="M244 571 c-44 -27 -64 -76 -64 -159 l0 -71 -38 -3 c-34 -3 -37 -6
-40 -36 -2 -22 2 -34 12 -38 11 -4 16 -19 16 -43 0 -44 29 -108 61 -138 97
-89 245 -58 300 62 10 22 19 56 19 76 0 24 5 39 16 43 10 4 14 16 12 38 -3 30
-6 33 -40 36 l-38 3 0 71 c0 119 -46 178 -140 178 -26 0 -58 -8 -76 -19z m155
-46 c29 -33 31 -41 31 -110 l0 -75 -110 0 -110 0 0 75 c0 69 2 77 31 110 27
31 37 35 79 35 42 0 52 -4 79 -35z m109 -227 c-4 -10 -50 -13 -188 -13 -138 0
-184 3 -187 13 -4 9 38 12 187 12 149 0 191 -3 188 -12z m-31 -94 c-8 -77 -63
-133 -139 -141 -88 -10 -165 53 -176 142 l-5 45 163 0 163 0 -6 -46z"/>
<path d="M303 174 c-8 -21 13 -42 28 -27 13 13 5 43 -11 43 -6 0 -13 -7 -17
-16z"/>
</g>
</svg>
