<svg version="1.0" xmlns="http://www.w3.org/2000/svg"
 width="100.000000pt" height="100.000000pt" viewBox="0 0 100.000000 100.000000"
 preserveAspectRatio="xMidYMid meet">

<g transform="translate(0.000000,100.000000) scale(0.100000,-0.100000)"
fill="#676767" stroke="none">
<path d="M386 944 c-171 -41 -308 -192 -338 -371 -51 -303 217 -573 521 -526
98 15 171 52 245 123 340 326 31 885 -428 774z m134 -314 l0 -110 110 0 c103
0 110 -1 110 -20 0 -19 -7 -20 -110 -20 l-110 0 0 -110 c0 -103 -1 -110 -20
-110 -19 0 -20 7 -20 110 l0 110 -110 0 c-103 0 -110 1 -110 20 0 19 7 20 110
20 l110 0 0 110 c0 103 1 110 20 110 19 0 20 -7 20 -110z"/>
</g>
</svg>
