<svg version="1.0" xmlns="http://www.w3.org/2000/svg"
 width="100.000000pt" height="100.000000pt" viewBox="0 0 100.000000 100.000000"
 preserveAspectRatio="xMidYMid meet">

<g transform="translate(0.000000,100.000000) scale(0.100000,-0.100000)"
fill="#676767" stroke="none">
<path d="M386 944 c-171 -41 -308 -192 -338 -371 -51 -303 217 -573 521 -526
98 15 171 52 245 123 340 326 31 885 -428 774z m330 -255 c3 -6 -46 -89 -111
-185 l-118 -174 -76 69 c-97 88 -114 107 -106 120 12 20 27 11 100 -60 l73
-71 63 94 c99 149 150 218 159 218 5 0 12 -5 16 -11z"/>
</g>
</svg>
