<svg version="1.0" xmlns="http://www.w3.org/2000/svg"
 width="60px" height="60px" viewBox="0 0 50.000000 50.000000"
 preserveAspectRatio="xMidYMid meet">

<g transform="translate(0.000000,50.000000) scale(0.100000,-0.100000)"
fill="#c9c7c7" stroke="none">
<path d="M155 456 c-60 -28 -87 -56 -114 -116 -36 -79 -19 -183 42 -249 33
-36 115 -71 167 -71 52 0 134 35 167 71 34 37 63 110 63 159 0 52 -35 134 -71
167 -37 34 -110 63 -159 63 -27 0 -65 -10 -95 -24z m180 -15 c128 -58 164
-223 72 -328 -101 -115 -283 -88 -348 52 -79 171 104 354 276 276z"/>
<path d="M299 283 c-24 -36 -47 -71 -51 -77 -5 -7 -19 1 -41 22 -51 50 -67 38
-17 -13 24 -25 47 -45 50 -45 7 0 120 164 120 174 0 20 -23 -2 -61 -61z"/>
</g>
</svg>
