<svg version="1.0" xmlns="http://www.w3.org/2000/svg"
 width="100.000000pt" height="100.000000pt" viewBox="0 0 100.000000 100.000000"
 preserveAspectRatio="xMidYMid meet">

<g transform="translate(0.000000,100.000000) scale(0.100000,-0.100000)"
fill="#676767" stroke="none">
<path d="M386 944 c-171 -41 -308 -192 -338 -371 -51 -303 217 -573 521 -526
98 15 171 52 245 123 340 326 31 885 -428 774z m132 -238 c2 -130 5 -149 22
-166 11 -11 20 -29 20 -40 0 -29 -35 -60 -67 -60 -20 0 -44 -17 -90 -62 -49
-49 -65 -60 -75 -50 -10 10 1 26 50 75 45 46 62 70 62 90 0 15 9 36 20 47 18
18 20 33 20 163 0 79 3 147 7 151 22 21 28 -10 31 -148z"/>
</g>
</svg>
