<svg version="1.0" xmlns="http://www.w3.org/2000/svg"
 width="30px" height="30px" viewBox="0 0 256.000000 256.000000"
 preserveAspectRatio="xMidYMid meet">

<g transform="translate(0.000000,256.000000) scale(0.100000,-0.100000)"
fill="#ffffff" stroke="none">
<path d="M522 2302 c-162 -83 -299 -266 -338 -452 -33 -157 -6 -369 69 -547
37 -87 304 -552 374 -651 89 -125 228 -248 353 -312 209 -107 461 -101 658 15
50 29 63 42 78 80 15 39 15 53 5 98 -15 66 -54 151 -115 245 -137 214 -251
259 -413 164 -101 -59 -160 -56 -224 15 -14 15 -82 124 -149 242 -111 192
-124 220 -128 270 -5 68 14 97 90 140 l51 29 21 -24 c33 -37 527 -422 565
-440 42 -20 99 -21 142 -4 17 8 197 143 398 301 l366 288 3 -466 c1 -335 -1
-470 -9 -479 -9 -11 -65 -14 -278 -14 -225 0 -270 -2 -289 -16 -27 -19 -29
-55 -3 -78 17 -15 47 -17 304 -14 270 3 287 4 313 24 15 11 37 33 48 48 20 27
21 40 24 547 2 496 2 522 -17 564 -14 32 -30 49 -60 64 -39 21 -53 21 -745 21
l-705 0 -58 112 c-83 161 -179 258 -255 258 -12 0 -47 -13 -76 -28z m139 -131
c65 -68 161 -259 167 -336 3 -36 0 -60 -8 -70 -7 -8 -50 -38 -96 -66 -64 -38
-90 -61 -110 -95 -30 -52 -42 -139 -25 -199 12 -44 270 -496 304 -533 12 -13
49 -37 84 -54 88 -43 150 -38 253 22 92 53 125 55 177 13 77 -62 205 -278 207
-350 1 -36 -1 -39 -59 -70 -171 -92 -387 -81 -572 28 -72 43 -213 176 -268
254 -61 86 -328 549 -358 620 -53 127 -69 196 -74 320 -3 74 -1 142 6 176 19
88 74 193 138 261 59 62 146 127 172 127 8 1 36 -21 62 -48z m1589 -334 c-36
-33 -707 -555 -728 -566 -12 -7 -33 -9 -45 -5 -19 6 -567 429 -567 438 0 2 7
20 15 39 8 20 15 52 15 72 l0 35 662 0 c556 0 660 -2 648 -13z"/>
</g>
</svg>
