<svg version="1.0" xmlns="http://www.w3.org/2000/svg"
 width="22px" height="22px" viewBox="0 0 48.000000 48.000000"
 preserveAspectRatio="xMidYMid meet">

<g transform="translate(0.000000,48.000000) scale(0.100000,-0.100000)"
fill="#ffffff4d" stroke="none">
<path d="M180 471 c-76 -25 -127 -70 -159 -141 -56 -124 16 -282 147 -319 l32
-10 0 85 0 84 -30 0 c-28 0 -30 3 -30 35 0 32 2 35 30 35 28 0 30 3 30 35 0
42 22 90 45 99 9 3 37 6 61 6 42 0 44 -1 44 -29 0 -26 -4 -30 -32 -33 -30 -3
-33 -6 -36 -40 -3 -36 -2 -38 28 -38 29 0 31 -2 28 -32 -2 -28 -8 -34 -30 -36
l-28 -3 0 -84 0 -84 32 10 c18 5 47 19 64 32 148 105 132 326 -30 409 -43 22
-128 32 -166 19z"/>
</g>
</svg>
