<svg version="1.0" xmlns="http://www.w3.org/2000/svg"
 width="30px" height="30px" viewBox="0 0 1001.000000 1001.000000"
 preserveAspectRatio="xMidYMid meet">

<g transform="translate(0.000000,1001.000000) scale(0.100000,-0.100000)"
fill="#ffffff" stroke="none">
<path d="M4795 8770 c-777 -45 -1499 -316 -2110 -793 -662 -516 -1142 -1255
-1340 -2062 -126 -514 -143 -1083 -49 -1593 217 -1176 969 -2172 2039 -2701
370 -183 735 -296 1145 -355 373 -54 826 -44 1206 24 1355 245 2480 1227 2908
2539 234 716 247 1514 35 2238 -427 1460 -1722 2538 -3226 2687 -196 20 -436
26 -608 16z m1258 -1397 c13 -202 105 -436 239 -610 53 -69 167 -177 251 -236
149 -106 362 -182 545 -194 l92 -6 0 -404 0 -403 -80 0 c-299 0 -685 119 -957
296 l-83 54 0 -839 c0 -509 -4 -880 -10 -942 -20 -196 -69 -359 -162 -540
-210 -410 -597 -696 -1063 -786 -138 -27 -416 -24 -555 6 -304 64 -548 198
-769 421 -415 418 -542 1038 -326 1595 175 452 599 810 1077 909 155 32 391
42 496 20 l22 -4 0 -415 0 -415 -27 11 c-50 20 -270 23 -343 5 -382 -95 -603
-490 -485 -864 65 -204 235 -376 440 -444 94 -31 309 -33 395 -4 192 65 333
183 414 346 81 165 76 34 76 1883 l0 1647 404 0 403 0 6 -87z"/>
</g>
</svg>
