<svg version="1.0" xmlns="http://www.w3.org/2000/svg"
 width="40px" height="40px" viewBox="0 0 64.000000 64.000000"
 preserveAspectRatio="xMidYMid meet">

<g transform="translate(0.000000,64.000000) scale(0.100000,-0.100000)"
fill="#131C63" stroke="none">
<path d="M4 617 c-3 -8 -4 -45 -2 -83 2 -53 6 -69 18 -69 11 0 16 15 20 53 l5
53 70 -71 c67 -67 95 -84 95 -57 0 7 -32 44 -70 82 l-71 70 52 5 c29 3 54 11
57 18 6 18 -167 17 -174 -1z"/>
<path d="M462 618 c3 -7 27 -15 57 -18 l52 -5 -71 -70 c-38 -38 -70 -75 -70
-82 0 -27 28 -10 95 57 l70 71 5 -53 c4 -38 9 -53 20 -53 12 0 15 16 15 80 l0
80 -88 3 c-69 2 -88 0 -85 -10z"/>
<path d="M267 372 c-23 -25 -22 -85 1 -105 25 -23 85 -22 105 1 23 25 22 85
-1 105 -25 23 -85 22 -105 -1z m88 -52 c0 -33 -2 -35 -35 -35 -29 0 -36 4 -38
23 -6 40 5 54 40 50 30 -3 33 -6 33 -38z"/>
<path d="M115 140 l-70 -71 -5 53 c-4 38 -9 53 -20 53 -22 0 -27 -147 -6 -164
19 -16 158 -11 164 7 3 9 -13 12 -59 12 l-64 0 78 78 c42 42 77 83 77 90 0 26
-29 9 -95 -58z"/>
<path d="M430 198 c0 -7 35 -48 77 -90 l78 -78 -64 0 c-46 0 -62 -3 -59 -12 7
-20 151 -23 167 -4 18 22 11 161 -9 161 -11 0 -16 -15 -20 -53 l-5 -53 -70 71
c-66 67 -95 84 -95 58z"/>
</g>
</svg>
